<?xml version="1.0" encoding="UTF-8"?>
<svg id="Layer_1" data-name="Layer 1" xmlns="http://www.w3.org/2000/svg" viewBox="0 0 86 86">
  <defs>
    <style>
      .cls-1, .cls-2, .cls-3 {
        stroke: #231f20;
        stroke-miterlimit: 10;
      }

      .cls-1, .cls-3 {
        fill: none;
      }

      .cls-2 {
        fill: #fff;
      }

      .cls-3 {
        stroke-width: 3px;
      }

      .cls-4 {
        letter-spacing: 0em;
      }

      .cls-5 {
        font-family: MyriadPro-Bold, 'Myriad Pro';
        font-size: 12px;
        font-weight: 700;
      }

      .cls-6 {
        letter-spacing: -.04em;
      }

      .cls-7 {
        letter-spacing: 0em;
      }

      .cls-8 {
        letter-spacing: 0em;
      }
    </style>
  </defs>
  <line class="cls-1" x1="1.5" y1="42.5" x2="84.6" y2="42.75"/>
  <g>
    <path class="cls-1" d="m15.5,13c-3.03,18.98-2.64,39.11,0,60"/>
    <path class="cls-1" d="m7.5,23.5c-2.92,12.05-2.44,25.6,0,40"/>
    <path class="cls-1" d="m25.5,6.5c-3.72,14.61-1.8,43.96,0,73"/>
    <line class="cls-1" x1="40.5" y1="2.5" x2="41.49" y2="84.54"/>
    <path class="cls-1" d="m55.5,4c5.83,15.59,3.38,47.87,1,80"/>
    <path class="cls-1" d="m68.5,11.5c4.48,13.28,2.79,39.05,1,65"/>
    <path class="cls-1" d="m5.5,61.5c22.19,4.55,48.02,2.99,75.1-.66"/>
    <path class="cls-1" d="m7.5,20.5c24.57-5.22,48.03-6.06,70-1"/>
    <path class="cls-1" d="m19.5,9.5c15.08-3.42,30.39-4.01,46-1"/>
    <path class="cls-1" d="m13.5,73.5c18.77,4.1,38.77,2.15,59-1"/>
    <path class="cls-1" d="m76.5,20.5c5.76,12.33,4.03,28.77.51,46.19"/>
  </g>
  <circle class="cls-3" cx="43" cy="43" r="41.5"/>
  <rect class="cls-2" x="19.5" y="29.5" width="45" height="25"/>
  <text class="cls-5" transform="translate(25.84 38.79)"><tspan class="cls-6" x="0" y="0">W</tspan><tspan x="10.15" y="0">o</tspan><tspan class="cls-4" x="17.08" y="0">r</tspan><tspan x="21.6" y="0">ld</tspan><tspan class="cls-8" x="-1.73" y="14.4">X</tspan><tspan x="5.59" y="14.4">plo</tspan><tspan class="cls-7" x="22.99" y="14.4">r</tspan><tspan x="27.45" y="14.4">e</tspan></text>
</svg>